<svg width="339" height="459" viewBox="0 0 339 459" fill="none" xmlns="http://www.w3.org/2000/svg">
<path d="M6 133.145L332 454.495" stroke="#61512E" stroke-width="10"/>
<path d="M334 459L334 128.64" stroke="#D5B060" stroke-width="10"/>
<path d="M5.51308 459.001L5.49078 128.641" stroke="#D5B060" stroke-width="10"/>
<path d="M142.865 272.519C177.111 277.04 212.241 272.898 243.485 260.654C274.729 248.411 300.573 228.661 317.506 204.085C334.439 179.509 341.641 151.299 338.134 123.287C334.628 95.2742 320.581 68.8163 297.904 47.5065C275.226 26.1967 245.016 11.0676 211.376 4.174C177.736 -2.71963 142.297 -1.04371 109.872 8.97413C77.4464 18.992 49.6061 36.8662 30.1319 60.1694C10.6576 83.4726 0.493363 111.075 1.01943 139.229L11.1341 139.104C10.6395 112.636 20.1954 86.6855 38.5039 64.7772C56.8125 42.8689 82.9864 26.0645 113.471 16.6463C143.956 7.22809 177.273 5.6525 208.9 12.1335C240.526 18.6145 268.928 32.838 290.248 52.8723C311.568 72.9066 324.773 97.7807 328.07 124.117C331.367 150.452 324.596 176.974 308.677 200.078C292.757 223.183 268.461 241.751 239.087 253.262C209.713 264.772 176.685 268.667 144.49 264.417L142.865 272.519Z" fill="#D5B060"/>
</svg>
