<svg width="339" height="459" viewBox="0 0 339 459" fill="none" xmlns="http://www.w3.org/2000/svg">
<path d="M6 133L332 454" stroke="#61512E" stroke-width="10"/>
<path d="M334 458.5L334 133" stroke="#D5B060" stroke-width="10"/>
<path d="M5.50305 452.003L5.5046 128.501" stroke="#D5B060" stroke-width="10"/>
<path d="M142.865 272.223C177.111 276.738 212.241 272.6 243.485 260.371C274.729 248.141 300.573 228.411 317.506 203.863C334.439 179.314 341.641 151.135 338.134 123.152C334.628 95.1704 320.581 68.7414 297.904 47.4548C275.226 26.1682 245.016 11.0556 211.376 4.16945C177.736 -2.71666 142.297 -1.04258 109.872 8.96435C77.4464 18.9713 49.6061 36.8261 30.1319 60.1039C10.6576 83.3817 0.493363 110.954 1.01943 139.077L11.1341 138.953C10.6395 112.513 20.1954 86.5911 38.5039 64.7066C56.8125 42.8222 82.9864 26.0361 113.471 16.6282C143.956 7.22022 177.273 5.64634 208.9 12.1203C240.526 18.5942 268.928 32.8022 290.248 52.8147C311.568 72.8271 324.773 97.6742 328.07 123.981C331.367 150.288 324.596 176.781 308.677 199.86C292.757 222.94 268.461 241.488 239.087 252.986C209.713 264.484 176.685 268.374 144.49 264.129L142.865 272.223Z" fill="#D5B060"/>
</svg>
