<svg id="visual" viewBox="0 0 900 600" width="900" height="600" xmlns="http://www.w3.org/2000/svg" xmlns:xlink="http://www.w3.org/1999/xlink" version="1.1"><path d="M0 0L30 12.2C60 24.3 120 48.7 180 52.8C240 57 300 41 360 44C420 47 480 69 540 77C600 85 660 79 720 69C780 59 840 45 870 38L900 31L900 0L870 0C840 0 780 0 720 0C660 0 600 0 540 0C480 0 420 0 360 0C300 0 240 0 180 0C120 0 60 0 30 0L0 0Z" fill="#43381d"></path><path d="M0 109L30 123C60 137 120 165 180 174C240 183 300 173 360 178C420 183 480 203 540 192C600 181 660 139 720 120C780 101 840 105 870 107L900 109L900 29L870 36C840 43 780 57 720 67C660 77 600 83 540 75C480 67 420 45 360 42C300 39 240 55 180 51.2C120 47.3 60 23.7 30 11.8L0 0Z" fill="#3d3c1f"></path><path d="M0 211L30 222C60 233 120 255 180 255C240 255 300 233 360 242C420 251 480 291 540 274C600 257 660 183 720 155C780 127 840 145 870 154L900 163L900 107L870 105C840 103 780 99 720 118C660 137 600 179 540 190C480 201 420 181 360 176C300 171 240 181 180 172C120 163 60 135 30 121L0 107Z" fill="#364023"></path><path d="M0 349L30 349C60 349 120 349 180 349C240 349 300 349 360 360C420 371 480 393 540 370C600 347 660 279 720 263C780 247 840 283 870 301L900 319L900 161L870 152C840 143 780 125 720 153C660 181 600 255 540 272C480 289 420 249 360 240C300 231 240 253 180 253C120 253 60 231 30 220L0 209Z" fill="#2f432a"></path><path d="M0 373L30 388C60 403 120 433 180 455C240 477 300 491 360 503C420 515 480 525 540 499C600 473 660 411 720 389C780 367 840 385 870 394L900 403L900 317L870 299C840 281 780 245 720 261C660 277 600 345 540 368C480 391 420 369 360 358C300 347 240 347 180 347C120 347 60 347 30 347L0 347Z" fill="#274632"></path><path d="M0 583L30 582C60 581 120 579 180 577C240 575 300 573 360 576C420 579 480 587 540 592C600 597 660 599 720 587C780 575 840 549 870 536L900 523L900 401L870 392C840 383 780 365 720 387C660 409 600 471 540 497C480 523 420 513 360 501C300 489 240 475 180 453C120 431 60 401 30 386L0 371Z" fill="#1f483b"></path><path d="M0 601L30 601C60 601 120 601 180 601C240 601 300 601 360 601C420 601 480 601 540 601C600 601 660 601 720 601C780 601 840 601 870 601L900 601L900 521L870 534C840 547 780 573 720 585C660 597 600 595 540 590C480 585 420 577 360 574C300 571 240 573 180 575C120 577 60 579 30 580L0 581Z" fill="#174a44"></path></svg>